<?xml version="1.0" encoding="utf-8"?>
<!-- Generator: Adobe Illustrator 20.1.0, SVG Export Plug-In . SVG Version: 6.00 Build 0)  -->
<svg version="1.1" id="Layer_1" xmlns="http://www.w3.org/2000/svg" xmlns:xlink="http://www.w3.org/1999/xlink" x="0px" y="0px"
	 viewBox="0 0 153.3 122.7" style="enable-background:new 0 0 153.3 122.7; stroke:#45A29E; fill-opacity: 0;" xml:space="preserve">
<path d="M137,73.8c-0.4-0.9-1-1.3-1.5-1.5c0,0-0.1,0-0.1,0c-0.1,0-0.1-0.1-0.2-0.1c0,0,0,0,0,0L122,69l1.9-8.5l0-0.3
	c0-2.8-2.2-5.1-4.8-5.1H34.3c-2.7,0-4.8,2.3-4.8,5.1l1.8,8.8l-13,3.2c-0.1,0-0.1,0.1-0.2,0.1c0,0-0.1,0-0.1,0
	c-2.5,1-2.2,4.6-1.9,6.7c0.3,1.9,0.8,3.9,1.4,5.7c1.5,5,3.3,10,5,14.9c0.5,1.2,1.4,2.2,2.5,2.7c1.1,0.5,2.3,0.5,3.5,0.6l-0.3,7.9
	c0.8,1.4,3.1,1.2,4,0.1l2-7.9l84.7,0.1l2,7.8c1,1.1,3.2,1.3,4-0.1l-0.3-7.9c2.1-0.1,4.2-0.3,5.5-2.3c0.8-1.1,4.5-11.9,5.6-16
	C136.3,83.7,138.5,76.9,137,73.8C136.6,72.9,138.5,76.9,137,73.8z M129.9,74c-2.4,2.1-3.9,5.1-5.2,7.9c-1.1-1.7-3-2.9-5.1-3.2
	c0.3-0.6,0.5-1.2,0.6-1.9l1.1-4.9L129.9,74z M118.6,81.6c2.4,0,4.3,2,4.3,4.3c0,2.4-2,4.3-4.3,4.3H34.8c-2.4,0-4.3-2-4.3-4.3
	c0-2.4,2-4.3,4.3-4.3H118.6z M34.3,58.1h84.8c1,0,1.8,0.9,1.8,2l-2.1,9.8l0,0l0,0l-1.4,6.4c-0.3,1.6-0.9,2.4-1.9,2.4H37.7
	c-0.4,0-1.3,0-1.9-2.4L32.4,60C32.5,58.9,33.3,58.1,34.3,58.1z M32.9,76.8c0.2,0.7,0.4,1.4,0.6,1.9c-2.1,0.4-3.9,1.6-5,3.3
	c-1.3-2.9-2.6-5.9-5-8.1l8.3-2L32.9,76.8z M133.1,83.7c-0.3,0.7-0.5,1.6-0.7,2.3c-0.5,1.7-3.5,10.1-4.3,12.6c-0.6,1.4-2,1.3-3.2,1.3
	c-1.1,0.1-95.4,0-96.3,0c-1.2-0.1-2.6,0-3.2-1.3c-1.5-4.5-5.6-16.5-5.9-18c-0.2-1.1-0.4-2.2-0.5-3.3c0-0.7-0.2-1.6,0.2-2.2
	c1.9-0.2,3.5,2.1,4.3,3.5c1.7,2.7,2.9,5.9,4.1,8.9c0.7,3.4,3.6,5.9,7.2,5.9h83.8c3.8,0,6.8-2.8,7.3-6.5c1.2-2.9,2.3-5.9,4.1-8.5
	c0.8-1.2,2.5-3.5,4.3-3.3C135,76.1,134.1,81.3,133.1,83.7C133.1,83.8,134.1,81.3,133.1,83.7z"/>
</svg>
