<?xml version="1.0" encoding="iso-8859-1"?>
<!-- Generator: Adobe Illustrator 18.0.0, SVG Export Plug-In . SVG Version: 6.00 Build 0)  -->
<!DOCTYPE svg PUBLIC "-//W3C//DTD SVG 1.1//EN" "http://www.w3.org/Graphics/SVG/1.1/DTD/svg11.dtd">
<svg version="1.1" id="Capa_1" xmlns="http://www.w3.org/2000/svg" xmlns:xlink="http://www.w3.org/1999/xlink" x="0px" y="0px"
	 viewBox="0 0 465.04 465.04" style="enable-background:new 0 0 465.04 465.04; stroke:#66FCF1; fill-opacity: 0;" xml:space="preserve">
<path d="M462.166,184.105L462.166,184.105c0,0-45.977-18.439-47.846-18.794l-8.756-1.662v-5.114c0-7.235-5.865-13.1-13.1-13.1
	h-150.34c-3.794,0-7.206,1.631-9.601,4.217c-2.395-2.586-5.806-4.217-9.6-4.217H72.584c-7.235,0-13.101,5.865-13.101,13.101v5.113
	l-8.755,1.662c-1.866,0.354-47.868,18.799-47.868,18.799h0C1.277,184.123,0,185.41,0,186.994v94.578
	c0,15.556,12.611,28.167,28.167,28.167h18.856v9.866h7v-9.866h357v9.866h7v-9.866h18.851c15.556,0,28.166-12.61,28.166-28.166
	v-93.939l-0.005-0.682C465.022,185.376,463.741,184.105,462.166,184.105z M348.252,222.435v-0.327
	c1.499,0.844,3.171,1.396,4.947,1.558l38.981,3.543c0.376,0.034,0.75,0.051,1.122,0.051c3.51,0,6.756-1.455,9.057-3.939
	l12.049,8.117H50.639l12.049-8.117c2.3,2.484,5.546,3.939,9.057,3.939c0.372,0,0.747-0.017,1.122-0.051l38.98-3.543
	c1.776-0.162,3.448-0.714,4.947-1.558v0.327H348.252z M420.233,188.686l2.12,1.069v38.596l-16.421-11.063L420.233,188.686z
	 M42.687,228.355v-38.597l2.127-1.073l14.301,28.602L42.687,228.355z M41.716,182.408l-3.365,1.697h-16.11l18.442-7.148
	C40.605,178.805,40.95,180.66,41.716,182.408z M42.687,238.438h379.667v27.667H42.687V238.438z M426.696,184.105l-3.365-1.697
	c0.766-1.748,1.111-3.601,1.034-5.449l18.435,7.146H426.696z M416.825,175.082c0.754,1.522,0.75,3.267-0.01,4.786l-18.71,37.423
	c-0.989,1.977-3.057,3.155-5.292,2.947l-38.981-3.543c-1.85-0.168-3.405-1.208-4.269-2.852c-0.864-1.645-0.837-3.516,0.075-5.134
	l22.811-40.501c0.951-1.688,2.744-2.737,4.68-2.737c0.335,0,0.672,0.032,1.003,0.095l34.882,6.623
	C414.682,172.505,416.071,173.56,416.825,175.082z M242.124,152.435h150.34c3.363,0,6.1,2.736,6.1,6.1v3.785l-19.126-3.631
	c-0.76-0.145-1.537-0.218-2.309-0.218c-4.458,0-8.588,2.414-10.778,6.301l-22.812,40.502c-1.769,3.141-2.06,6.826-0.884,10.162
	H236.023v-56.9C236.023,155.171,238.76,152.435,242.124,152.435z M66.483,158.535c0-3.363,2.736-6.1,6.101-6.1h150.34
	c3.363,0,6.1,2.736,6.1,6.1v56.9H122.392c1.175-3.336,0.885-7.021-0.884-10.162l-22.812-40.502
	c-2.189-3.886-6.319-6.301-10.777-6.301c-0.772,0-1.55,0.073-2.311,0.218l-19.125,3.631V158.535z M52.034,172.188l34.88-6.623
	c0.332-0.063,0.669-0.095,1.005-0.095c1.935,0,3.728,1.048,4.678,2.736l22.812,40.502c0.912,1.618,0.939,3.489,0.075,5.134
	c-0.863,1.644-2.419,2.684-4.269,2.852l-38.98,3.543c-2.239,0.202-4.304-0.97-5.291-2.947l-18.712-37.422
	c-0.76-1.52-0.764-3.264-0.01-4.786C48.976,173.56,50.365,172.505,52.034,172.188z M35.687,302.739h-7.52
	C16.495,302.739,7,293.244,7,281.572v-90.467h28.687V302.739z M42.687,302.605v-29.5h379.667v29.5H42.687z M458.04,281.572
	c0,11.671-9.495,21.167-21.166,21.167h-7.521V191.105h28.687V281.572z"/>
<g>
</g>
<g>
</g>
<g>
</g>
<g>
</g>
<g>
</g>
<g>
</g>
<g>
</g>
<g>
</g>
<g>
</g>
<g>
</g>
<g>
</g>
<g>
</g>
<g>
</g>
<g>
</g>
<g>
</g>
</svg>
